<?xml version="1.0" encoding="utf-8"?>
<!-- Generator: Adobe Illustrator 15.1.0, SVG Export Plug-In . SVG Version: 6.00 Build 0)  -->
<!DOCTYPE svg PUBLIC "-//W3C//DTD SVG 1.1//EN" "http://www.w3.org/Graphics/SVG/1.1/DTD/svg11.dtd">
<svg id="backpack" version="1.1" xmlns="http://www.w3.org/2000/svg" xmlns:xlink="http://www.w3.org/1999/xlink" x="0px" y="0px"
	 width="600px" height="600px" viewBox="0 0 600 600" enable-background="new 0 0 600 600" xml:space="preserve">
<defs>
  <clipPath id="strap-mask-left" x="161.333" y="154.667" width="277.333" height="310.666" >
  	<rect x="161.333" y="154.667" fill="#ffffff" width="277.333" height="310.666"/>
  </clipPath>
  <clipPath id="strap-mask-right" x="161.333" y="154.667" width="277.333" height="310.666" >
  	<rect x="161.333" y="154.667" fill="#ffffff" width="277.333" height="310.666"/>
  </clipPath>
</defs>
<g id="handle">
	<path fill="#272C40" d="M322.67,179.41h-6.819v-26.649c0-5.021-4.084-9.104-9.104-9.104h-13.558c-5.021,0-9.105,4.085-9.105,9.104
		v26.649h-6.819v-26.649c0-8.781,7.144-15.925,15.924-15.925h13.558c8.779,0,15.925,7.144,15.925,15.925l0.01,26.65L322.67,179.41z"
		/>
</g>
<g id="base">
	<path fill="none" d="M392.035,197.716V446.2h-0.002c-0.075,10.479-8.448,18.967-18.938,18.967h-145.09 c-10.495,0-19.422-8.488-19.492-18.967h-0.003V190.666c-3.315,30.969-5.518,265.9-5.518,265.9l0.015,0.014 c0,22.089,31.912,40.275,78.677,40.275h17.308h2.016h17.308c46.765,0,78.677-18.187,78.677-40.275l0.015-0.014 C397.007,456.566,395.044,247.221,392.035,197.716z"/>
	<path fill="#272C40" d="M208.514,446.2c0.07,10.479,8.997,18.967,19.492,18.967h145.09c10.489,0,18.862-8.488,18.938-18.967h0.002 V197.716c-0.205-3.366-0.414-5.998-0.628-7.77c-3.329-27.849-9.591-35.255-56.362-35.255h-34.704h-0.682h-34.704 c-46.771,0-53.033,7.406-56.362,35.255c-0.027,0.226-0.055,0.467-0.082,0.72V446.2H208.514z"/>
</g>
<g id="cover">
	<path xmlns="http://www.w3.org/2000/svg" fill="#394054" d="M391.407,189.946c-3.329-27.849-9.591-35.255-56.362-35.255h-34.704h-0.682h-34.704 c-46.771,0-53.033,7.406-56.362,35.255c-3.36,27.83-5.6,46.62-5.6,46.62l0.015,0.014c0,22.089,31.912,40.276,78.677,40.276h17.308 h2.016h17.308c46.765,0,78.677-18.187,78.677-40.276l0.015-0.014C397.007,236.566,394.768,217.776,391.407,189.946z"/>
</g>
<g id="pocket-base">
	<path fill="#394054" d="M375.31,332.07H225.25v19.09v77.291c0,10.535,8.959,19.09,19.495,19.09h111.62
		c10.535,0,18.938-8.555,18.938-19.09V351.16c0.01-10.53,0.01-8.66,0.01-19.09H375.31z"/>
</g>
<g id="zipper">
	<path id="zip" fill="#272C40" d="M245.25,370.55c-3.642-0.083-4.908,13.459-4.965,15.999c-0.059,2.543,1.954,4.648,4.498,4.704
		c2.542,0.06,4.647-1.955,4.704-4.495c0.06-2.54-0.59-16.119-4.23-16.21L245.25,370.55z M244.97,389.2
		c-1.456-0.032-2.608-1.239-2.574-2.694c0.033-1.457,1.24-2.609,2.695-2.576c1.456,0.031,2.61,1.238,2.576,2.692
		c-0.05,1.46-1.25,2.61-2.71,2.58L244.97,389.2z"/>
</g>
<g id="pocket-top">
	<path id="pocket" fill="#4D556B" d="M375.86,356.1c0,10.959-8.605,20.121-19.563,20.121h-112.04
		c-10.958,0-20.121-9.162-20.121-20.121v-23.947h151.73v23.951L375.86,356.1z"/>
	<path id="stitching" fill="none" stroke="#394054" stroke-miterlimit="10" d="M373.91,332.15v22.748
		c0,10.535-8.68,18.811-19.215,18.811h-108.84c-10.536,0-19.216-8.275-19.216-18.811V332.15"/>
</g>
<g id="logo">
	<rect x="286.06" y="398.95" fill="#FFFFFF" width="27.893" height="20.639"/>
	<rect x="288.56" y="401.46" fill="none" stroke="#333333" stroke-miterlimit="10" width="22.872" height="15.619"/>
</g>
<g id="strap-left" clip-path="url(#strap-mask-left)">
	<path fill="#93481F" d="M269.88,447.54h-16.177V154.88c0-1.804,2.321-2.988,4.827-2.988h7.193c2.507,0,4.156,1.184,4.156,2.988
		L269.88,447.54L269.88,447.54z"/>
	<ellipse fill="#682807" cx="262.29" cy="389.6" rx="1.806" ry="1.743"/>
	<ellipse fill="#682807" cx="262.29" cy="401.32" rx="1.806" ry="1.743"/>
	<ellipse fill="#682807" cx="262.29" cy="413.03" rx="1.806" ry="1.743"/>
	<ellipse fill="#682807" cx="262.29" cy="304.25" rx="1.806" ry="1.743"/>
	<ellipse fill="#682807" cx="262.29" cy="315.97" rx="1.806" ry="1.743"/>
	<ellipse fill="#682807" cx="262.29" cy="327.68" rx="1.806" ry="1.743"/>
</g>
<g id="strap-hold-left">
	<path fill="#B5683C" d="M276.57,251.46c0,1.086-0.88,1.967-1.966,1.967h-25.632c-1.085,0-1.966-0.881-1.966-1.967v-2.203
		c0-1.086,0.88-1.966,1.966-1.966h25.632c1.086,0,1.966,0.88,1.966,1.966v2.2V251.46z"/>
	<path fill="#B5683C" d="M276.57,351.3c0,1.086-0.88,1.968-1.966,1.968h-25.632c-1.085,0-1.966-0.882-1.966-1.968v-2.202
		c0-1.084,0.88-1.966,1.966-1.966h25.632c1.086,0,1.966,0.882,1.966,1.966v2.199V351.3z"/>
	<path fill="#B5683C" d="M276.57,181.73c0,1.086-0.88,1.967-1.966,1.967h-25.632c-1.086,0-1.966-0.881-1.966-1.967v-2.203
		c0-1.086,0.88-1.967,1.966-1.967h25.632c1.086,0,1.966,0.881,1.966,1.967v2.2V181.73z"/>
	<path fill="#FFFFFF" d="M261.7,277.69c-8.368,0-9.669,2.074-9.669,3.256v15.242c0,1.185,1.238,2.42,2.42,2.42h15.242
		c1.182,0,1.862-1.235,1.862-2.42v-15.242c0-1.19-1.49-3.26-9.85-3.26L261.7,277.69z M269.32,293.59
		c0,0.924-0.748,1.674-1.672,1.674h-11.716c-0.924,0-1.672-0.75-1.672-1.674v-9.484c0-0.924,0.749-1.672,1.672-1.672h11.716
		c0.924,0,1.672,0.748,1.672,1.672v9.48V293.59z"/>
	<path fill="#CCCCCC" d="M263.18,283.82c0,0.77-0.625,1.395-1.395,1.395c-0.771,0-1.395-0.625-1.395-1.395v-2.789
		c0-0.771,0.624-1.395,1.395-1.395c0.77,0,1.395,0.623,1.395,1.395v2.78V283.82z"/>
	<path fill="#FFFFFF" d="M261.7,363.029c-8.368,0-9.669,2.074-9.669,3.259v15.239c0,1.185,1.238,2.423,2.42,2.423h15.242
		c1.182,0,1.862-1.238,1.862-2.423v-15.239c0-1.181-1.49-3.261-9.85-3.261L261.7,363.029z M269.32,378.93
		c0,0.924-0.748,1.672-1.672,1.672h-11.716c-0.924,0-1.672-0.748-1.672-1.672v-9.479c0-0.93,0.749-1.678,1.672-1.678h11.716
		c0.924,0,1.672,0.748,1.672,1.678v9.48V378.93z"/>
	<path fill="#CCCCCC" d="M263.18,369.17c0,0.77-0.625,1.395-1.395,1.395c-0.771,0-1.395-0.625-1.395-1.395v-2.789
		c0-0.77,0.624-1.395,1.395-1.395c0.77,0,1.395,0.625,1.395,1.395V369.17L263.18,369.17z"/>
</g>
<g id="strap-right" clip-path="url(#strap-mask-right)">
	<path fill="#93481F" d="M346.86,447.54h-16.184V154.88c0-1.804,2.318-2.988,4.824-2.988h7.194c2.508,0,4.147,1.184,4.147,2.988
		v292.66h0.021H346.86z"/>
	<ellipse fill="#682807" cx="339.28" cy="389.6" rx="1.805" ry="1.743"/>
	<ellipse fill="#682807" cx="339.28" cy="401.32" rx="1.805" ry="1.743"/>
	<ellipse fill="#682807" cx="339.28" cy="413.03" rx="1.805" ry="1.743"/>
	<ellipse fill="#682807" cx="339.28" cy="304.25" rx="1.805" ry="1.743"/>
	<ellipse fill="#682807" cx="339.28" cy="315.97" rx="1.805" ry="1.743"/>
	<ellipse fill="#682807" cx="339.28" cy="327.68" rx="1.805" ry="1.743"/>
</g>
<g id="strap-hold-right">
	<path fill="#B5683C" d="M353.55,251.46c0,1.086-0.881,1.967-1.967,1.967h-25.634c-1.086,0-1.966-0.881-1.966-1.967v-2.203
		c0-1.086,0.88-1.966,1.966-1.966h25.634c1.086,0,1.967,0.88,1.967,1.966v2.2V251.46z"/>
	<path fill="#B5683C" d="M353.55,351.3c0,1.086-0.881,1.968-1.967,1.968h-25.634c-1.086,0-1.966-0.882-1.966-1.968v-2.202
		c0-1.084,0.88-1.966,1.966-1.966h25.634c1.086,0,1.967,0.882,1.967,1.966v2.199V351.3z"/>
	<path fill="#B5683C" d="M353.55,181.73c0,1.086-0.881,1.967-1.967,1.967h-25.634c-1.086,0-1.966-0.881-1.966-1.967v-2.203
		c0-1.086,0.88-1.967,1.966-1.967h25.634c1.086,0,1.967,0.881,1.967,1.967v2.2V181.73z"/>
	<path fill="#FFFFFF" d="M338.68,277.69c-8.367,0-9.669,2.074-9.669,3.256v15.242c0,1.185,1.238,2.42,2.42,2.42h15.243
		c1.185,0,1.861-1.235,1.861-2.42v-15.242c0-1.19-1.49-3.26-9.853-3.26L338.68,277.69z M346.3,293.59
		c0,0.924-0.748,1.674-1.674,1.674H332.91c-0.925,0-1.675-0.75-1.675-1.674v-9.484c0-0.924,0.75-1.672,1.675-1.672h11.716
		c0.926,0,1.674,0.748,1.674,1.672v9.48V293.59L346.3,293.59z"/>
	<path fill="#CCCCCC" d="M340.16,283.82c0,0.77-0.625,1.395-1.396,1.395c-0.771,0-1.396-0.625-1.396-1.395v-2.789
		c0-0.771,0.625-1.395,1.396-1.395c0.771,0,1.396,0.623,1.396,1.395v2.78V283.82z"/>
	<path fill="#FFFFFF" d="M338.68,363.029c-8.367,0-9.669,2.074-9.669,3.259v15.239c0,1.185,1.238,2.423,2.42,2.423h15.243
		c1.185,0,1.861-1.238,1.861-2.423v-15.239c0-1.181-1.49-3.261-9.853-3.261L338.68,363.029z M346.3,378.93
		c0,0.924-0.748,1.672-1.674,1.672H332.91c-0.925,0-1.675-0.748-1.675-1.672v-9.479c0-0.93,0.75-1.678,1.675-1.678h11.716
		c0.926,0,1.674,0.748,1.674,1.678v9.48V378.93L346.3,378.93z"/>
	<path fill="#CCCCCC" d="M340.16,369.17c0,0.77-0.625,1.395-1.396,1.395c-0.771,0-1.396-0.625-1.396-1.395v-2.789
		c0-0.77,0.625-1.395,1.396-1.395c0.771,0,1.396,0.625,1.396,1.395V369.17L340.16,369.17z"/>
</g>

</svg>