<svg xmlns="http://www.w3.org/2000/svg" xmlns:xlink="http://www.w3.org/1999/xlink" version="1.1" id="notebook" x="0px" y="0px" width="600px" height="600px" viewBox="0 0 600 600" enable-background="new 0 0 600 600" xml:space="preserve">
  <g id="back-cover">
    <path fill="#3A3A3A" d="M347.846 209.611h-7.278 -92.515c-2.044 0-3.679 1.496-3.679 3.54v178.553c0 2.043 1.635 3.58 3.679 3.58h92.515 7.278c7.898 0 14.16-6.277 14.16-14.179V223.753C362.006 215.854 355.744 209.611 347.846 209.611"/>
  </g>
  <g id="paper">
    <path fill="#FFFFFF" d="M344.846 212.611h-7.278 -92.515c-2.044 0-3.679 1.496-3.679 3.54v172.553c0 2.043 1.635 3.58 3.679 3.58h92.515 7.278c7.898 0 14.16-6.277 14.16-14.179V226.753C359.006 218.854 352.744 212.611 344.846 212.611"/>
  </g>
  <g id="bookmark">
    <polygon fill="#CEA3D8" points="254.746 397.16 252.624 395.818 250.724 397.16 250.724 319.457 254.746 319.457 "/>
  </g>
  <g id="front-cover">
    <path fill="#3A3A3A" d="M342.471 204.111h-7.278 -92.519c-2.044 0-3.679 1.496-3.679 3.54v178.553c0 2.043 1.635 3.58 3.679 3.58h92.515 7.278c7.898 0 14.162-6.277 14.162-14.179V218.253C356.631 210.354 350.369 204.111 342.471 204.111"/>
  </g>
  <g id="binder-top">
    <rect x="237.994" y="267.455" fill="#CEA3D8" width="118.637" height="52.281"/>
  </g>
  <g id="binder-btm">
    <polygon fill="#BA89C6" points="361.994 326.378 356.631 319.9 356.631 267.477 361.994 273.953 "/>
  </g>
  <g id="ribbon">
    <path fill="#262425" d="M339.023 390.805c0 0.563-0.457 1.018-1.021 1.018h-3.658c-0.563 0-1.02-0.455-1.02-1.018V203.858c0-0.562 0.457-1.018 1.02-1.018h3.658c0.563 0 1.021 0.456 1.021 1.018V390.805z"/>
    <polyline fill="#262425" points="333.641 391.508 338.188 395.257 343.582 395.257 339.064 390.753 "/>
  </g>
</svg>
